HIERARCHY
ROOT Hips
{
	OFFSET -3.958830 18.904000 13.208200
	CHANNELS 6 Xposition Yposition Zposition Zrotation Yrotation Xrotation 
	JOINT LHipJoint
	{
		OFFSET 0.000000 0.000000 0.000000
		CHANNELS 3 Zrotation Yrotation Xrotation
		JOINT LeftUpLeg
		{
			OFFSET 1.800000 -1.400000 0.085000
			CHANNELS 3 Zrotation Yrotation Xrotation
			JOINT LeftLeg
			{
				OFFSET 2.215000 -6.000000 0.000000
				CHANNELS 3 Zrotation Yrotation Xrotation
				JOINT LeftFoot
				{
					OFFSET 2.500000 -6.900000 0.000000
					CHANNELS 3 Zrotation Yrotation Xrotation
					JOINT LeftToeBase
					{
						OFFSET 0.200000 -0.500000 1.950000
						CHANNELS 3 Zrotation Yrotation Xrotation
						End Site
						{
							OFFSET 0.000000 0.000000 0.000000
						}
					}
				}
			}
		}
	}
	JOINT RHipJoint
	{
		OFFSET 0.000000 0.000000 0.000000
		CHANNELS 3 Zrotation Yrotation Xrotation
		JOINT RightUpLeg
		{
			OFFSET -1.800000 -1.400000 0.085000
			CHANNELS 3 Zrotation Yrotation Xrotation
			JOINT RightLeg
			{
				OFFSET -2.215000 -6.000000 0.000000
				CHANNELS 3 Zrotation Yrotation Xrotation
				JOINT RightFoot
				{
					OFFSET -2.500000 -6.900000 0.000000
					CHANNELS 3 Zrotation Yrotation Xrotation
					JOINT RightToeBase
					{
						OFFSET -0.200000 -0.500000 1.950000
						CHANNELS 3 Zrotation Yrotation Xrotation
						End Site
						{
							OFFSET 0.000000 0.000000 0.000000
						}
					}
				}
			}
		}
	}
	JOINT LowerBack
	{
		OFFSET 0.000000 0.000000 0.000000
		CHANNELS 3 Zrotation Yrotation Xrotation
		JOINT Spine
		{
			OFFSET -0.087000 1.940000 -0.288900
			CHANNELS 3 Zrotation Yrotation Xrotation
			JOINT Spine1
			{
				OFFSET 0.000000 1.950000 0.060000
				CHANNELS 3 Zrotation Yrotation Xrotation
				JOINT Neck
				{
					OFFSET 0.000000 0.000000 0.000000
					CHANNELS 3 Zrotation Yrotation Xrotation
					JOINT Neck1
					{
						OFFSET 0.000000 1.600000 0.340000
						CHANNELS 3 Zrotation Yrotation Xrotation
						JOINT Head
						{
							OFFSET 0.000000 1.667000 -0.240000
							CHANNELS 3 Zrotation Yrotation Xrotation
							End Site
							{
								OFFSET 0.000000 0.000000 0.000000
							}
						}
					}
				}
				JOINT LeftShoulder
				{
					OFFSET 0.000000 0.000000 0.000000
					CHANNELS 3 Zrotation Yrotation Xrotation
					JOINT LeftArm
					{
						OFFSET 2.700000 1.550000 -0.730000
						CHANNELS 3 Zrotation Yrotation Xrotation
						JOINT LeftForeArm
						{
							OFFSET 5.450000 0.000000 0.000000
							CHANNELS 3 Zrotation Yrotation Xrotation
							JOINT LeftHand
							{
								OFFSET 3.450000 0.000000 0.000000
								CHANNELS 3 Zrotation Yrotation Xrotation
								JOINT LeftHandIndex1
								{
									OFFSET 0.750000 0.000000 0.000000
									CHANNELS 3 Zrotation Yrotation Xrotation
									End Site
									{
										OFFSET 0.000000 0.000000 0.000000
									}
								}
							}
						}
					}
				}
				JOINT RightShoulder
				{
					OFFSET 0.000000 0.000000 0.000000
					CHANNELS 3 Zrotation Yrotation Xrotation
					JOINT RightArm
					{
						OFFSET -2.700000 1.550000 -0.730000
						CHANNELS 3 Zrotation Yrotation Xrotation
						JOINT RightForeArm
						{
							OFFSET -5.450000 0.000000 0.000000
							CHANNELS 3 Zrotation Yrotation Xrotation
							JOINT RightHand
							{
								OFFSET -3.450000 0.000000 0.000000
								CHANNELS 3 Zrotation Yrotation Xrotation
								JOINT RightHandIndex1
								{
									OFFSET -0.750000 0.000000 0.000000
									CHANNELS 3 Zrotation Yrotation Xrotation
									End Site
									{
										OFFSET 0.000000 0.000000 0.000000
									}
								}
							}
						}
					}
				}
			}
		}
	}
}
MOTION
Frames: 14
Frame Time: 0.016667
-1.153180 17.460710 -4.043550 -5.989008 5.856722 -0.428084 -15.476527 11.184573 5.896689 17.185979 -3.186540 -43.983427 -30.386232 16.494012 28.545235 0.456621 9.076166 1.088076 0.152470 0.225380 -0.033620 18.323558 -8.449310 3.282496 -4.628745 12.852043 -21.791550 18.563248 -15.482873 46.625637 -1.458836 -8.123529 1.409994 -0.057020 0.206850 0.142410 -3.322881 -2.783217 -9.557364 18.727144 -7.810923 44.736955 -11.278972 3.291042 -0.036089 11.291336 -7.643351 -13.099662 -21.216245 12.654450 63.951196 3.878490 -8.757990 -20.979670 -24.734934 -7.402083 -0.432457 -63.339352 -2.318955 -8.815960 -7.678031 -10.696601 -1.612424 -3.421856 2.479287 0.770280 -0.296200 0.422910 0.094390 2.050521 18.779668 9.273812 35.720106 5.161620 -19.030968 -96.669398 74.933529 -80.399857 1.752612 4.312553 -0.096610 0.526940 0.200510 0.220690 
-1.159910 17.448370 -4.045080 -6.364828 5.430593 -1.401004 -15.454442 11.074951 5.951308 18.523075 -2.713834 -43.558419 -31.146218 17.042264 28.767504 0.426051 9.370544 0.970462 0.150930 0.202490 -0.004270 18.362100 -8.481157 3.206665 -4.647607 12.646812 -20.557400 19.307389 -15.816101 46.191253 -1.475756 -8.182014 1.375268 -0.041610 0.206670 0.136460 -3.411057 -2.593216 -9.544467 18.908669 -7.880862 44.600880 -11.810136 3.182012 0.336074 11.171710 -7.806185 -12.946297 -22.489449 14.113636 64.643274 2.965100 -7.985950 -20.863500 -24.669366 -8.089046 0.136110 -61.977324 -2.354872 -8.759858 -8.774689 -11.923474 -1.615594 -3.428425 2.445994 0.806920 -0.292060 0.415890 0.061860 2.258864 19.073801 8.293793 36.316335 4.795280 -22.835768 -88.308444 78.948421 -72.486631 1.289285 4.434818 -0.134910 0.555490 0.232610 0.184890 
-1.179560 17.456470 -4.031880 -6.570661 4.764681 -2.620239 -15.449586 11.073711 5.934480 19.725105 -2.129656 -42.328298 -31.607822 17.210818 28.350870 0.340255 9.492966 0.879751 0.182920 0.226350 0.041280 18.368624 -8.539794 3.100601 -4.583736 12.230258 -18.667646 19.973066 -15.884551 45.262466 -1.492632 -8.138296 1.350981 0.003040 0.172410 0.135480 -3.427978 -2.532643 -9.470256 18.186508 -7.443520 44.743850 -11.805984 3.287379 1.022320 10.752973 -7.757584 -13.111459 -24.446240 16.323031 65.636720 2.398490 -6.884940 -21.504130 -24.947391 -9.741548 0.829559 -60.521053 -3.041975 -8.237922 -8.876353 -12.213934 -1.652479 -3.416276 2.429496 0.863750 -0.310930 0.437630 0.028460 3.422025 19.995110 7.728412 36.217801 3.411834 -26.461439 -78.859079 82.126414 -65.520756 1.122728 3.693839 -0.162610 0.576100 0.255380 0.143180 
-1.207420 17.478070 -4.011310 -6.651276 4.259705 -3.737912 -15.469951 11.144277 5.903590 20.700973 -1.683664 -41.053132 -31.736686 17.069415 27.656481 0.235966 9.519541 0.821207 0.197750 0.220920 0.083310 18.345298 -8.586719 2.981273 -4.437444 11.620202 -16.716027 20.309463 -15.727940 44.091564 -1.474328 -8.014211 1.355371 0.030510 0.149040 0.138120 -3.365641 -2.630268 -9.377957 16.652772 -6.736546 44.976169 -11.104329 3.433113 1.599316 10.014633 -7.885821 -13.479780 -27.205745 18.960250 65.558971 1.832280 -5.648350 -21.870410 -24.945367 -11.099034 1.502405 -59.812241 -3.617536 -8.077732 -8.401690 -13.468825 -1.749351 -3.416369 2.411539 0.915260 -0.322080 0.446880 -0.014630 4.963185 20.865125 7.600833 35.881404 2.105332 -28.450872 -70.428324 83.162900 -59.257059 1.157294 2.689679 -0.193520 0.590500 0.288720 0.100520 
-1.238940 17.509560 -3.983760 -6.846835 3.600153 -4.697329 -15.485773 11.213470 5.860698 21.700882 -1.158258 -39.821574 -31.455270 16.757536 26.899973 0.085315 9.506131 0.735729 0.200840 0.186880 0.108510 18.329691 -8.632561 2.880151 -4.053549 11.036764 -14.765727 20.509385 -15.445139 42.787090 -1.433540 -7.873048 1.337166 0.051160 0.106430 0.168040 -3.320413 -2.714882 -9.287501 15.202565 -5.909299 45.149984 -10.381051 3.799243 1.902299 9.096844 -7.997978 -13.891740 -30.413351 21.696990 64.568316 1.555830 -4.487700 -22.257300 -24.672783 -12.143441 2.070247 -59.360996 -4.287720 -7.901411 -8.149052 -14.723788 -1.881015 -3.423486 2.439308 0.978750 -0.336390 0.449760 -0.083630 6.566064 21.390727 7.679031 35.830671 0.666506 -29.469342 -62.609631 83.493895 -53.663051 1.252834 1.828011 -0.220760 0.550010 0.347450 0.045750 
-1.271590 17.544610 -3.949420 -7.162340 3.013656 -5.378476 -15.487803 11.290967 5.785964 22.443261 -0.647373 -38.750910 -30.538608 16.127865 25.943102 -0.049322 9.338450 0.726754 0.229080 0.193520 0.129260 18.325167 -8.703807 2.800539 -3.421122 10.376236 -12.947332 20.463247 -14.953447 41.269936 -1.398801 -7.659231 1.362181 0.080300 0.068670 0.188570 -3.309067 -2.759117 -9.186669 13.914126 -5.076817 45.000952 -9.578924 4.194070 1.875184 7.966506 -8.008703 -14.279931 -33.765141 24.618009 62.848029 1.837000 -3.114040 -22.494900 -24.158913 -12.848527 2.647406 -59.493694 -4.878548 -7.838227 -7.705409 -16.104226 -2.022818 -3.402271 2.488142 1.025210 -0.359430 0.462490 -0.109150 8.359418 21.442153 7.752372 35.792131 -0.617704 -29.617779 -55.052988 83.197881 -47.951600 1.366994 1.101666 -0.231230 0.517050 0.367480 0.013880 
-1.301450 17.576770 -3.911060 -7.773477 2.789769 -5.636443 -15.496558 11.347507 5.729985 23.128133 -0.203774 -38.428322 -28.984318 15.392369 25.255377 -0.159472 9.109587 0.758446 0.260170 0.205390 0.156640 18.325543 -8.735123 2.753457 -2.447808 9.761474 -11.556614 20.328905 -14.484142 39.903844 -1.372625 -7.446115 1.396975 0.097320 0.032630 0.203620 -3.294405 -2.837003 -9.114693 12.888350 -4.385452 44.455692 -8.683024 4.516750 1.237588 6.858073 -7.923183 -14.465180 -36.757766 27.214631 60.563915 2.100380 -1.617450 -22.414070 -23.613691 -12.843951 2.968344 -60.222513 -5.394652 -7.566833 -7.197816 -16.513356 -2.129301 -3.381153 2.545277 1.048970 -0.384700 0.473240 -0.121640 10.081031 20.735649 7.719303 35.874286 -1.648318 -28.934406 -45.790766 82.576986 -40.725605 1.516737 0.411716 -0.226730 0.477900 0.366130 -0.006210 
-1.326000 17.616430 -3.862960 -8.370443 2.351633 -5.661454 -15.503527 11.439401 5.650544 23.672817 0.340283 -37.938798 -27.264168 14.476466 24.051550 -0.255878 8.797031 0.853947 0.274460 0.206890 0.169150 18.320393 -8.784153 2.720100 -1.294476 9.112242 -10.273874 19.702060 -13.756509 38.444249 -1.332460 -7.153118 1.486418 0.102010 0.031090 0.211820 -3.273251 -2.922048 -9.046924 11.816617 -3.565869 43.585403 -8.007967 4.898889 0.530881 6.015039 -7.654477 -14.835125 -39.413473 29.443020 58.159573 2.069460 -0.195950 -22.043200 -22.974383 -13.016209 3.344299 -61.074897 -5.754612 -7.218540 -6.350351 -16.297959 -2.219382 -3.369790 2.562235 1.063640 -0.394260 0.483740 -0.109890 11.280182 20.192804 7.917777 37.294760 -2.657286 -28.662429 -39.251873 81.734872 -35.527084 1.609624 0.052198 -0.230430 0.475850 0.358430 -0.008850 
-1.339910 17.664540 -3.803320 -9.270120 1.983829 -5.458209 -15.513536 11.516920 5.584328 24.381289 0.969362 -37.571974 -25.416131 13.558081 22.657570 -0.346386 8.448400 0.977258 0.274070 0.203500 0.181290 18.318714 -8.811766 2.701013 0.098131 8.402651 -9.050499 19.032282 -12.986553 36.781726 -1.275493 -6.815958 1.621448 0.101460 0.027110 0.174820 -3.253535 -3.010806 -8.998750 11.249889 -2.954349 42.450209 -7.586546 5.202094 -0.670918 5.485832 -7.351409 -14.974501 -41.929475 31.314276 55.925000 1.420490 1.197290 -21.693350 -23.142307 -12.614634 3.374470 -61.456036 -5.776059 -6.577692 -5.272562 -15.065115 -2.204075 -3.357819 2.531995 1.069400 -0.405840 0.476400 -0.102540 12.653016 19.100967 7.964559 38.571353 -3.520474 -27.810492 -30.800219 80.592419 -28.652746 1.716723 -0.280549 -0.251110 0.498790 0.344130 -0.018390 
-1.350580 17.703830 -3.730700 -10.131438 1.810905 -4.863711 -15.519668 11.581780 5.521195 24.823500 1.500331 -37.517589 -23.523639 12.630806 21.159698 -0.364045 8.008574 1.153253 0.314540 0.258860 0.198210 18.321097 -8.838491 2.695301 1.555298 7.663476 -8.177329 18.141193 -12.150713 35.195230 -1.239244 -6.459726 1.764580 0.110020 -0.000800 0.141780 -3.243828 -3.084331 -8.957704 10.774265 -2.436117 41.208542 -7.344419 5.288032 -2.955473 5.024751 -7.219192 -14.718622 -44.519682 32.970242 52.489410 1.127200 2.613750 -21.637870 -22.947391 -10.692144 2.947989 -62.285209 -5.466725 -5.801091 -4.612304 -13.078354 -2.029374 -3.312128 2.554708 1.048590 -0.440710 0.490330 -0.054820 13.581020 16.657840 7.590838 40.159040 -3.792607 -25.975096 -20.535045 79.044785 -20.098935 1.861935 -0.620920 -0.228010 0.491540 0.274650 0.000320 
-1.356770 17.737020 -3.649610 -10.904258 1.811881 -3.819460 -15.519612 11.640621 5.460020 24.958905 1.875826 -37.730578 -21.589924 11.678923 19.448025 -0.390234 7.541485 1.344871 0.307120 0.256570 0.180550 18.325956 -8.873137 2.702242 3.097659 6.928344 -7.804823 16.830425 -11.247271 33.747387 -1.166202 -6.079782 1.927731 0.088610 0.010000 0.111610 -3.244554 -3.140590 -8.921880 10.431672 -1.914963 39.382800 -7.365139 5.234301 -5.606744 4.694253 -7.163031 -14.374628 -46.547717 34.210559 48.845397 1.113040 4.065170 -21.155450 -22.245890 -8.063590 2.363345 -63.497879 -4.829336 -5.071115 -3.892274 -11.048831 -1.854980 -3.312265 2.550295 1.024640 -0.449910 0.475800 -0.024140 13.810716 13.608616 7.130841 42.540639 -3.979419 -23.964234 -10.901353 76.898087 -11.994860 1.984981 -0.833963 -0.223530 0.491250 0.243990 0.019540 
-1.359660 17.771880 -3.558950 -11.438992 1.729079 -2.209519 -15.521758 11.683099 5.442773 24.944364 2.081454 -38.027085 -20.199528 10.779037 17.267298 -0.409183 7.117341 1.530294 0.258830 0.193720 0.137020 18.324477 -8.902595 2.701608 4.467524 6.205423 -7.951480 15.176738 -10.209300 32.158066 -1.052926 -5.639795 2.096690 0.046270 0.051920 0.088590 -3.232837 -3.209552 -8.903840 9.903889 -1.190290 36.915156 -7.479717 5.136272 -8.610074 4.458418 -7.168741 -14.076369 -47.958378 34.899215 45.040244 1.882000 5.424590 -19.648630 -21.506591 -5.274479 1.790529 -64.323170 -3.676261 -4.309620 -3.450910 -8.741871 -1.645428 -3.342240 2.544718 1.003140 -0.442840 0.436760 -0.006920 13.950858 10.476615 6.752262 45.260578 -4.831201 -22.118664 -2.864591 74.508391 -5.377789 2.088554 -0.964188 -0.243530 0.485990 0.244740 0.034350 
-1.359430 17.805880 -3.457010 -11.737511 1.859260 -0.268071 -15.505459 11.706731 5.434147 24.632411 1.962230 -38.519942 -18.950166 9.944278 15.274137 -0.466065 6.749551 1.688027 0.158250 0.059290 0.037090 18.332151 -8.968391 2.696304 5.523041 5.413362 -8.341823 13.575761 -9.281163 30.390340 -0.920428 -5.215786 2.243947 -0.020780 0.136930 0.090410 -3.260398 -3.213445 -8.877819 9.411224 -0.561077 34.127360 -7.846049 4.726952 -12.125435 4.160898 -7.394103 -13.656364 -49.079526 35.086706 40.824132 3.619800 6.160990 -18.348170 -20.197575 -1.780806 1.094373 -65.166141 -2.094318 -3.645477 -3.236954 -6.519104 -1.503906 -3.419911 2.525991 1.004860 -0.419140 0.374670 -0.010750 13.722662 6.693050 6.244886 48.424557 -6.147689 -20.353001 3.618813 71.681014 -0.026031 2.154753 -1.014796 -0.289890 0.486190 0.314100 0.048370 
-1.347610 17.838130 -3.348890 -11.996096 1.911481 1.826493 -15.471581 11.717043 5.418920 24.160632 1.661980 -39.058330 -17.769091 9.227011 13.622628 -0.556254 6.470151 1.818995 0.025470 -0.135670 -0.084950 18.353610 -9.053508 2.695940 6.465445 4.642345 -8.891296 11.993287 -8.420803 28.461617 -0.763144 -4.805201 2.400100 -0.102240 0.264330 0.104330 -3.332784 -3.159127 -8.841863 9.282159 -0.135420 30.959527 -8.414074 4.086141 -15.133018 3.790086 -7.969251 -13.379586 -49.846685 34.556168 36.172709 5.814750 6.236410 -16.983780 -18.406044 1.474903 0.590547 -66.080027 -0.296929 -3.263288 -3.180844 -4.703784 -1.455201 -3.539878 2.478516 1.019210 -0.367230 0.282740 -0.027730 13.114079 3.394863 5.966970 51.490478 -7.993638 -19.139418 8.898386 69.236850 3.979872 2.172857 -1.009360 -0.366370 0.505100 0.427170 0.052000 
